<?xml version="1.0" encoding="utf-8"?><!DOCTYPE svg PUBLIC "-//W3C//DTD SVG 20010904//EN" "http://www.w3.org/TR/2001/REC-SVG-20010904/DTD/svg10.dtd"><svg viewBox="0 0 480 480" xmlns="http://www.w3.org/2000/svg" xmlns:xlink="http://www.w3.org/1999/xlink"><style>:root>svg{display:none}:root>svg:target{display:block}</style><svg viewBox="0 0 18 32" id="arrow-left" xmlns="http://www.w3.org/2000/svg"><path d="M.228 16.412c0-.551.21-1.101.628-1.521L14.029 1.682c.838-.84 2.197-.84 3.034 0s.838 2.202 0 3.042L5.407 16.411l11.656 11.688c.838.84.838 2.202 0 3.042s-2.196.841-3.034 0L.856 17.932a2.15 2.15 0 0 1-.628-1.521z"/></svg><svg viewBox="0 0 18 32" id="arrow-right" xmlns="http://www.w3.org/2000/svg"><path d="M17.692 16.412a2.15 2.15 0 0 0-.628-1.521L3.891 1.682c-.838-.84-2.197-.84-3.034 0s-.838 2.202 0 3.042l11.656 11.687L.857 28.099c-.838.84-.838 2.202 0 3.042s2.196.841 3.034 0l13.173-13.209c.418-.42.628-.97.628-1.521z"/></svg><svg version="1.0" viewBox="0 0 225 225" id="arrows-circle" xmlns="http://www.w3.org/2000/svg"><path d="M90 19.9C76 30.8 64.5 40.3 64.5 41.1c0 1.5 50.2 40.8 52.2 40.9 2.4 0 2.1-1.9-2.8-14-2.7-6.9-4.9-13.1-4.9-13.8 0-2.9 20.9-.4 30.4 3.8 12.9 5.5 24.9 17.8 30.1 30.8 8 19.8 3.6 43.7-10.7 58.8-5.7 6.1-6.1 4.4 4.2 16.8l6.5 7.7 6.6-6.9c8.3-8.6 13.8-17.9 18.1-30.2 3.1-9.1 3.2-10.2 3.3-24.5 0-11.9-.4-16.4-1.9-21.5-4.3-14.7-11.4-26.6-21.8-36.8C158.2 36.9 138.9 29 117.5 29c-6.1 0-8.5-.3-8.5-1.3 0-.6 2.2-6.6 4.8-13.3 4.7-11.7 5.3-14.5 2.9-14.3C116 .1 104 9 90 19.9zM46.6 62.2c-6.8 7.7-12.1 17-15.8 27.8-3.1 9.1-3.2 10.2-3.3 24.5 0 11.9.4 16.4 1.9 21.5 4.3 14.7 11.4 26.6 21.8 36.8 15.6 15.3 34.9 23.2 56.3 23.2 6.1 0 8.5.3 8.5 1.2 0 .7-2.2 6.8-4.9 13.5-4.6 11.5-5.1 15.4-2 14 3.6-1.6 51.4-39.5 51.4-40.8 0-1.5-50.2-40.8-52.2-40.9-2.4 0-2.1 1.9 2.8 14 2.7 6.9 4.9 13.1 4.9 13.7 0 3-20.9.5-30.4-3.7-22.6-9.7-37-34.7-33.7-58.5 1.7-11.8 7.3-24.4 13.6-30.5l3.4-3.3-8-8.9C56.4 61 52.4 57 52 57c-.5 0-2.9 2.4-5.4 5.2z"/></svg><svg version="1.0" viewBox="0 0 360 360" id="clock" xmlns="http://www.w3.org/2000/svg"><path d="M156 30.4C113.6 38 78.4 60.8 54.8 95.9c-11.9 17.8-19.3 35-23.4 54.6-2.7 12.7-2.7 46.2-.1 58.4 10.2 47.4 41.1 87.2 83.1 107.2C136 326.3 151 330 175 330.7c14.8.4 19.4.2 29.5-1.5 61.6-10.6 110.4-57.3 123.7-118.5 3.2-14.8 3.2-45.6 0-60.3-5.9-27.4-16.5-48.3-35.3-69.9C279 64.4 264.2 53 245.5 44c-13.1-6.3-20.3-8.9-34-12.1-11.6-2.7-43.9-3.6-55.5-1.5zm27.6 44c1.8 1.4 1.9 3.3 2.2 52.8l.3 51.3 27.9 28c15.7 15.7 28 28.7 28 29.7 0 2.3-3.5 5.8-5.8 5.8-1 0-15.1-13.4-32-30.3l-30.3-30.3.3-52.8c.3-50.9.4-52.8 2.2-54.2 2.5-1.8 4.7-1.8 7.2 0z"/></svg><svg version="1.0" viewBox="0 0 240 240" id="instagram" xmlns="http://www.w3.org/2000/svg"><path d="M63.2 1.1c-26 3-44.5 14.7-54 34C.9 52 0 60.5 0 120c0 59.5.9 68 9.2 84.9 5.7 11.5 14.4 20.2 25.9 25.9C52 239.1 60.5 240 120 240c59.5 0 68-.9 84.9-9.2 19.8-9.7 30.9-27.8 34.1-55.3 1.3-11.7 1.3-99.3 0-111-2.3-19.8-8.2-33.7-19-44.5-10.8-10.8-24.7-16.7-44.5-19C164.8-.2 73.8-.1 63.2 1.1zM172.8 23c28.5 2.9 41.3 15.7 44.2 44.2 1.3 13 1.3 92.6 0 105.6-2.9 28.5-15.7 41.3-44.2 44.2-13 1.3-92.6 1.3-105.6 0-28.5-2.9-41.3-15.7-44.2-44.2-1.3-13-1.3-92.6 0-105.6.6-5.5 2-12.7 3.1-15.9 5.6-16.6 18.8-26 39.5-28.2 11.6-1.2 95.5-1.3 107.2-.1z"/><path d="M179.5 42.1c-8.9 2.6-12.5 14.1-7 22.5 4.1 6.3 15.9 7.3 21.5 1.9 8.1-7.8 4.7-21.4-6.1-24.5-3.9-1.1-4.3-1.1-8.4.1zM107 59.6c-32.7 7-54.3 40.2-47.5 72.9 6.9 33.1 40 54.9 73 48 23.6-4.9 43.1-24.4 48-48 2.9-14 1.2-26.7-5.6-40.4-12.2-24.7-40.7-38.4-67.9-32.5zm22.5 21.9c11.7 3.1 20.9 10.5 26.1 21 11.7 24-2.6 51.7-29.4 56.7-20.8 3.9-41.3-11.1-45.4-33-2.8-15 5-31.9 18.3-39.9 9.9-5.9 19.9-7.5 30.4-4.8z"/></svg><svg version="1.0" viewBox="0 0 130 130" id="star" xmlns="http://www.w3.org/2000/svg"><path d="M59.9 4.9c-1.3 1-6 9-10.4 17.7l-8 15.9L24 41.1c-9.7 1.4-18.5 3.1-19.6 3.7-2.8 1.5-4.8 6.5-3.9 9.9.4 1.8 5.5 7.4 13.7 15.4l13.1 12.5-3 18c-3.2 19.1-3.1 22 1 24.9 1.2.8 3.3 1.5 4.7 1.6 1.4 0 9.8-3.7 18.8-8.3l16.2-8.3 16.3 8.3c8.9 4.6 17.3 8.3 18.7 8.3 1.4-.1 3.5-.8 4.7-1.6 4.1-2.9 4.2-5.8 1-24.9l-3-18 13.1-12.5c8.2-8 13.3-13.6 13.7-15.4.9-3.4-1.1-8.4-3.9-9.9-1.1-.6-9.9-2.3-19.6-3.7l-17.5-2.6-8-15.9C72.1 6.1 69.7 3 65 3c-1.5 0-3.8.9-5.1 1.9z" fill="#b9a36b"/></svg><svg version="1.0" viewBox="0 0 225 225" id="tel" xmlns="http://www.w3.org/2000/svg"><path d="M1.7 1.8C.1 3.5 0 12.6 0 112.7 0 217 .1 221.8 1.8 223.3c1.7 1.6 10.8 1.7 110.9 1.7 104.3 0 109.1-.1 110.6-1.8 1.6-1.7 1.7-10.8 1.7-110.9C225 8 224.9 3.2 223.2 1.7 221.5.1 212.4 0 112.3 0 8 0 3.2.1 1.7 1.8zm80.5 50.9C92.7 63.2 99 70.2 99 71.5c0 1.1-3.6 5.6-8.7 10.7l-8.6 8.7 1.7 4.3c4 10.6 17.7 27.9 28.8 36.4 6.6 5.1 18 11.4 20.6 11.4 1 0 5.5-3.8 10.2-8.5 5-5 9.3-8.5 10.5-8.5 2.8 0 35.5 32.8 35.5 35.5 0 2.5-19.8 22.4-25 25-5 2.7-18.6 3.1-27.5 1.1-19.5-4.6-48.9-23.9-66.6-43.8-15.9-17.7-28.8-39.9-32.5-55.5-2.1-9.1-1.6-22.2 1.1-27.3 2.6-5.1 22.5-25 24.9-25 1.3 0 8.1 6 18.8 16.7z"/></svg><svg version="1.0" viewBox="0 0 225 225" id="user" xmlns="http://www.w3.org/2000/svg"><path d="M104 36.4c-13 2.8-22.8 10.5-28.7 22.4-3.7 7.4-3.8 7.9-3.8 18.7 0 10.4.2 11.4 3.2 17.6 1.8 3.5 5 8.4 7.3 10.9 2.2 2.4 3.9 4.4 3.8 4.4-15.6 6.1-31.3 19.1-39.1 32.4-7.3 12.4-10.5 23.6-10.9 38.2l-.3 8.5h154l-.3-9c-.9-28.9-17.8-54.9-43.7-67.1-3.3-1.6-6.2-3-6.4-3.1-.2-.1 1.5-2.2 3.8-4.5 2.3-2.4 5.6-7.2 7.4-10.8 3-6.1 3.2-7.1 3.2-17.6 0-10.7-.1-11.2-3.8-18.6-6-12.3-16.5-20.2-30.1-22.7-7.1-1.3-8.5-1.3-15.6.3zm20.6 15.4c13 6.6 18.9 19.9 15 33.4-2 6.9-8.7 14.7-15.4 17.9-6.5 3.2-16.8 3.2-23.4.1C91.1 98.4 84 87.4 84 77.1c0-11.6 7.9-22.3 19.7-26.7 5.3-2 15.7-1.3 20.9 1.4zm-.1 68.7c12.3 2.3 23.4 8.3 32.4 17.4 10.1 10.1 15 19.5 18.5 35.3l.6 2.8H49l.6-2.8c3.5-15.8 8.4-25.2 18.5-35.3 15.1-15.2 35.3-21.5 56.4-17.4z"/></svg><svg version="1.0" viewBox="0 0 225 225" id="whatsap" xmlns="http://www.w3.org/2000/svg"><path d="M78.5 1.1C47.9 5.8 22.6 28.1 12.8 59c-2.2 7.3-2.3 8.6-2.3 42v34.5l3.3 9.5c4.3 12.4 9.8 21.5 18.5 30.7 7.1 7.4 19.2 16.3 25.4 18.5l3.3 1.2v13.2c0 10.7.3 13.6 1.6 14.8.8.9 2.2 1.6 2.9 1.6.8 0 7.3-5.4 14.6-11.9l13.2-11.9 28.1-.4 28.1-.3 9.5-3.3c13.4-4.6 22.1-10.1 32.1-20.1 10-10 15.4-18.7 20.1-32.1l3.3-9.5v-34c0-38.6-.2-39.9-8-56-9.9-20.4-27.5-35.2-50-42.1-8.9-2.7-9.3-2.8-40.5-3-17.3-.1-34.2.2-37.5.7zm72.5 9.4c20.6 5.1 39.2 20.2 48.1 39 6.7 14 7.2 17 7.7 46.7.4 28.8-.3 36.6-4.3 48.1-6.4 18.5-22.8 35.7-41.1 43.1-11.4 4.7-19.3 5.6-46.5 5.6H89.8l-9.7 8.7-9.6 8.7-.3-7.9c-.3-12.2-.2-11.9-9.5-16.3-19.6-9.3-34.6-27-40.4-48.2-1.5-5.6-1.8-10.8-1.8-37 0-22.6.4-31.9 1.4-36 7.6-30.5 32.5-52.5 63.5-56 12.4-1.5 60.1-.4 67.6 1.5z"/><path d="M62.5 50.6C53.1 59 51.2 61.8 50.3 68.9c-1.1 9.2 3.7 19.7 16.5 36.6 14.7 19.3 38.9 38.5 66.3 52.6 7.9 4 18.1 2.6 24.7-3.4 3.1-2.9 13.2-19 13.2-21.1 0-1-5.7-5.4-15.2-11.6-13.9-9-15.7-10-20-10-4.1 0-5.4.5-8.8 3.6-4.5 4-5 4-14.3-.9-7.1-3.7-13.7-10.8-17.6-19l-2.9-6.1 3.2-3.7c3.9-4.3 5.2-9.5 3.4-13.8-2-4.7-23.7-29.1-25.9-29.1-1 0-5.7 3.4-10.4 7.6zM81.9 64c5.2 6 9.1 11.4 9.1 12.6 0 1.2-1.7 3.6-4 5.7-2.2 1.9-4 4.1-4 4.7 0 2.4 5.4 14.7 8.7 19.7 6 9 14.4 15.4 25.8 19.3 8.3 2.8 10.1 2.6 12.7-1.5 3.8-5.8 5.3-5.6 18.5 3 6.5 4.2 11.7 8.1 11.6 8.5-.5 1.9-7.2 11.6-9.1 13.4-3.6 3.2-10 3.2-16.2.1-8.3-4.2-25.6-15.1-33.9-21.3-18-13.6-39.8-40.9-42-52.7-1.3-7.2.1-10.6 7.1-16.9 3.4-3.1 6.3-5.5 6.4-5.3.2.1 4.4 5 9.3 10.7z"/></svg></svg>